<svg width="36" height="36" viewBox="0 0 36 36" fill="none" xmlns="http://www.w3.org/2000/svg">
<g clip-path="url(#clip0_2_2649)">
<path d="M18 36C27.9411 36 36 27.9411 36 18C36 8.05888 27.9411 0 18 0C8.05888 0 0 8.05888 0 18C0 27.9411 8.05888 36 18 36Z" fill="#635BFF"/>
<path fill-rule="evenodd" clip-rule="evenodd" d="M16.596 13.995C16.596 13.149 17.289 12.816 18.441 12.816C20.097 12.816 22.185 13.32 23.841 14.211V9.09901C22.032 8.37901 20.25 8.10001 18.45 8.10001C14.031 8.10001 11.097 10.404 11.097 14.256C11.097 20.259 19.368 19.305 19.368 21.897C19.368 22.896 18.495 23.22 17.28 23.22C15.471 23.22 13.167 22.482 11.34 21.483V26.658C13.365 27.531 15.408 27.9 17.28 27.9C21.807 27.9 24.921 25.659 24.921 21.762C24.885 15.282 16.596 16.434 16.596 13.995Z" fill="white"/>
</g>
<defs>
<clipPath id="clip0_2_2649">
<rect width="36" height="36" fill="white"/>
</clipPath>
</defs>
</svg>
